<?xml version="1.0" encoding="UTF-8"?><svg id="Calque_2" xmlns="http://www.w3.org/2000/svg" viewBox="0 0 2138 648"><defs><style>.cls-1{fill:#fff;}.cls-2{fill:#ffa6d9;}.cls-3{fill:#e84a97;}.cls-4{fill:#7cf5ac;}</style></defs><g id="Calque_1-2"><path class="cls-1" d="m1041.5,449.22C506.56,373.64,169.55,446.07,0,505.47V8.06C0,3.61,3.61,0,8.06,0h1654.44s198.5,565-621,449.22Z"/><path class="cls-1" d="m228.59,83.9c-77.27,0-139.91,62.64-139.91,139.91s62.64,139.93,139.91,139.93,139.92-62.65,139.92-139.93-62.64-139.91-139.92-139.91Zm-60.93,68.06c.85-1.57,1.76-3.11,2.74-4.61.48-.74.98-1.49,1.5-2.21.51-.73,1.04-1.45,1.57-2.16,1.35-1.76,2.79-3.46,4.29-5.1.45-.49.91-.97,1.39-1.45.15-.16.29-.31.46-.47.63-.63,1.26-1.24,1.92-1.85.33-.3.66-.61.99-.9,1-.88,2.01-1.74,3.06-2.57,2.44-1.94,5.01-3.71,7.7-5.31.38-.23.77-.46,1.15-.67.78-.44,1.56-.87,2.37-1.28.79-.41,1.59-.81,2.41-1.19,8.95-4.21,18.94-6.55,29.49-6.55v44.64c-10.73.11-19.78,7.09-23.01,16.74l-32.35-10.49-10.49-3.41h-.01c1.29-3.88,2.91-7.61,4.84-11.15Zm61.03,177.64c-38.05,0-68.91-30.85-68.91-68.9,0-7.41,1.17-14.53,3.34-21.22l42.52,13.81c-.79,2.42-1.22,4.98-1.22,7.66,0,13.54,10.97,24.51,24.5,24.51s24.51-10.97,24.51-24.51c0-1.84-.2-3.62-.59-5.34-.2-.86-.43-1.71-.7-2.53-.28-.82-.61-1.62-.97-2.41-2.18-4.72-5.83-8.64-10.36-11.15-.5-.27-1.02-.54-1.54-.78-.52-.25-1.06-.48-1.6-.68-2.72-1.04-5.66-1.6-8.74-1.6h-.24v-44.64c7.79,0,15.3,1.29,22.28,3.68,7.84,2.68,15.04,6.74,21.32,11.87.74.6,1.47,1.22,2.18,1.86.35.31.7.64,1.06.96.7.66,1.39,1.32,2.05,2,3.36,3.38,6.38,7.11,8.98,11.13,2.4,3.71,4.45,7.66,6.11,11.8.3.75.6,1.52.87,2.28.14.38.26.77.4,1.15,1.06,3.09,1.89,6.28,2.49,9.56.16.81.29,1.63.41,2.46.49,3.31.74,6.69.74,10.14,0,38.05-30.86,68.9-68.9,68.9Z"/><path class="cls-3" d="m228.69,59c-90.57,0-164,73.42-164,164s73.43,164,164,164,164-73.42,164-164S319.25,59,228.69,59Zm-.1,304.74c-77.27,0-139.91-62.65-139.91-139.93s62.64-139.91,139.91-139.91,139.92,62.64,139.92,139.91-62.64,139.93-139.92,139.93Z"/><path class="cls-4" d="m228.69,115.63v44.64c-10.72.11-19.8,7.09-23.02,16.75l-42.85-13.91c9.18-27.58,35.19-47.48,65.86-47.48Z"/><path class="cls-4" d="m297.58,260.71c0,38.05-30.85,68.9-68.9,68.9s-68.91-30.85-68.91-68.9c0-7.41,1.17-14.54,3.34-21.23l42.53,13.82c-.8,2.41-1.22,4.98-1.22,7.65,0,13.54,10.97,24.51,24.5,24.51s24.5-10.97,24.5-24.51c0-3.67-.8-7.15-2.26-10.28-3.88-8.39-12.38-14.23-22.25-14.23-.08,0-.15,0-.24,0v-44.64c7.79,0,15.29,1.29,22.28,3.68,14.76,5.04,27.26,14.95,35.59,27.82,6.98,10.77,11.03,23.62,11.03,37.4Z"/><path class="cls-2" d="m1244,517C727.6,401.33,222.89,484.47,0,534.11v-28.64c169.55-59.4,506.56-131.83,1041.5-56.25C1861,565,1662.5,0,1662.5,0h84.38s189.12,672-502.88,517Z"/><path class="cls-3" d="m2138,8.06v242.38c-246.91,89.27-345.04,263.24-383.7,397.56H8.06c-4.45,0-8.06-3.61-8.06-8.06v-105.83c222.89-49.64,727.6-132.78,1244-17.11C1936,672,1746.88,0,1746.88,0h383.06c4.45,0,8.06,3.61,8.06,8.06Z"/><path class="cls-1" d="m2138,250.44v389.5c0,4.45-3.61,8.06-8.06,8.06h-375.64c38.66-134.32,136.79-308.29,383.7-397.56Z"/><path d="m549.13,112.54c0,12.09-9.59,19.08-27.97,19.08h-36.16V61.69h34.17c17.48,0,26.47,7.3,26.47,18.18,0,6.99-3.59,12.39-9.29,15.39,7.79,2.5,12.79,8.49,12.79,17.28Zm-48.04-38.66v16.49h16.08c7.89,0,12.18-2.8,12.18-8.29s-4.29-8.2-12.18-8.2h-16.08Zm31.76,36.96c0-5.89-4.5-8.69-12.88-8.69h-18.88v17.28h18.88c8.39,0,12.88-2.6,12.88-8.6Z"/><path d="m556.36,104.74c0-16.18,12.48-27.67,29.56-27.67s29.47,11.49,29.47,27.67-12.39,27.67-29.47,27.67-29.56-11.48-29.56-27.67Zm43.25,0c0-9.29-5.9-14.88-13.69-14.88s-13.79,5.6-13.79,14.88,5.99,14.88,13.79,14.88,13.69-5.59,13.69-14.88Z"/><path d="m679.96,77.88v53.74h-14.79v-6.39c-4.09,4.69-10.09,7.19-16.68,7.19-13.48,0-22.98-7.59-22.98-24.17v-30.36h15.58v28.07c0,8.99,4,12.98,10.89,12.98s12.39-4.6,12.39-14.49v-26.56h15.58Z"/><path d="m729.14,129.02c-3.2,2.29-7.89,3.39-12.69,3.39-12.69,0-20.07-6.49-20.07-19.28v-22.07h-8.3v-11.99h8.3v-13.09h15.58v13.09h13.39v11.99h-13.39v21.87c0,4.6,2.5,7.09,6.69,7.09,2.3,0,4.6-.7,6.3-1.99l4.2,10.99Z"/><path d="m736.06,61.69c0-4.9,3.9-8.69,9.69-8.69s9.69,3.59,9.69,8.39c0,5.2-3.89,9-9.69,9s-9.69-3.8-9.69-8.69Zm1.9,16.19h15.58v53.74h-15.58v-53.74Z"/><path d="m822.58,77.88v73.12h-15.58v-25.07c-3.9,4.39-9.49,6.49-16.08,6.49-15.18,0-26.87-10.78-26.87-27.67s11.69-27.67,26.87-27.67c7.19,0,12.88,2.3,16.78,6.99v-6.19h14.88Zm-15.28,26.86c0-9.29-5.99-14.88-13.69-14.88s-13.79,5.6-13.79,14.88,5.99,14.88,13.79,14.88,13.69-5.59,13.69-14.88Z"/><path d="m891.14,77.88v53.74h-14.79v-6.39c-4.09,4.69-10.09,7.19-16.68,7.19-13.48,0-22.98-7.59-22.98-24.17v-30.36h15.58v28.07c0,8.99,4,12.98,10.89,12.98s12.39-4.6,12.39-14.49v-26.56h15.58Z"/><path d="m958.01,109.14h-40.66c1.5,6.69,7.19,10.78,15.38,10.78,5.7,0,9.79-1.7,13.48-5.2l8.3,9c-4.99,5.69-12.48,8.69-22.18,8.69-18.58,0-30.66-11.69-30.66-27.67s12.29-27.67,28.67-27.67,27.96,10.59,27.96,27.87c0,1.2-.2,2.9-.29,4.2Zm-40.85-9.09h26.47c-1.1-6.79-6.19-11.18-13.18-11.18s-12.18,4.29-13.28,11.18Z"/><path d="m993.71,96.66c0-21.08,16.19-36.16,37.96-36.16,12.09,0,22.17,4.39,28.77,12.39l-10.39,9.59c-4.7-5.4-10.59-8.19-17.58-8.19-13.09,0-22.37,9.18-22.37,22.37s9.29,22.37,22.37,22.37c6.99,0,12.88-2.8,17.58-8.3l10.39,9.59c-6.6,8.09-16.68,12.48-28.86,12.48-21.68,0-37.86-15.08-37.86-36.15Z"/><path d="m1064.37,104.74c0-16.18,12.48-27.67,29.56-27.67s29.47,11.49,29.47,27.67-12.39,27.67-29.47,27.67-29.56-11.48-29.56-27.67Zm43.25,0c0-9.29-5.9-14.88-13.69-14.88s-13.79,5.6-13.79,14.88,5.99,14.88,13.79,14.88,13.69-5.59,13.69-14.88Z"/><path d="m1187.97,77.88v53.74h-14.79v-6.39c-4.09,4.69-10.09,7.19-16.68,7.19-13.48,0-22.98-7.59-22.98-24.17v-30.36h15.58v28.07c0,8.99,4,12.98,10.89,12.98s12.39-4.6,12.39-14.49v-26.56h15.58Z"/><path d="m1202.49,57.5h15.58v74.12h-15.58V57.5Z"/><path d="m1284.92,109.14h-40.66c1.5,6.69,7.19,10.78,15.38,10.78,5.69,0,9.79-1.7,13.48-5.2l8.3,9c-4.99,5.69-12.48,8.69-22.18,8.69-18.58,0-30.66-11.69-30.66-27.67s12.29-27.67,28.67-27.67,27.96,10.59,27.96,27.87c0,1.2-.2,2.9-.29,4.2Zm-40.85-9.09h26.47c-1.1-6.79-6.19-11.18-13.18-11.18s-12.18,4.29-13.28,11.18Z"/><path d="m1349.78,77.88v53.74h-14.79v-6.39c-4.09,4.69-10.09,7.19-16.68,7.19-13.48,0-22.98-7.59-22.98-24.17v-30.36h15.58v28.07c0,8.99,4,12.98,10.89,12.98s12.39-4.6,12.39-14.49v-26.56h15.58Z"/><path d="m1397.67,77.07v14.39c-1.29-.1-2.29-.2-3.5-.2-8.59,0-14.28,4.7-14.28,14.99v25.37h-15.58v-53.74h14.88v7.09c3.8-5.2,10.19-7.9,18.48-7.9Z"/><path d="m1484,110.24c0,11.79-9.08,22.57-28.96,22.57-9.79,0-19.88-2.69-26.67-7.49l6.29-12.39c5.29,4,12.69,6.3,19.98,6.3,8.08,0,13.09-3.29,13.09-8.99,0-5.29-3.9-8.59-13.09-8.59h-7.39v-10.69l14.38-16.28h-29.76v-12.99h48.94v10.49l-15.78,17.97c12.58,2,18.97,9.79,18.97,20.08Z"/><path class="cls-3" d="m483,183.46h8.79v30.81h19.04v7.16h-27.83v-37.98Z"/><path class="cls-3" d="m521.05,185.95c0,1.41-.22,2.44-1.41,5.42l-3.15,7.81h-5.37l2.33-8.57c-1.74-.76-2.88-2.39-2.88-4.66,0-3.15,2.28-5.21,5.26-5.21s5.21,2.12,5.21,5.21Z"/><path class="cls-3" d="m553.93,209.23h-22.08c.81,3.64,3.9,5.86,8.35,5.86,3.09,0,5.32-.92,7.32-2.82l4.51,4.89c-2.71,3.09-6.78,4.72-12.05,4.72-10.09,0-16.65-6.35-16.65-15.03s6.67-15.03,15.57-15.03,15.19,5.75,15.19,15.14c0,.65-.11,1.57-.16,2.28Zm-22.19-4.94h14.37c-.6-3.69-3.36-6.07-7.16-6.07s-6.62,2.33-7.21,6.07Z"/><path class="cls-3" d="m589.59,204.72v16.71h-8.46v-15.41c0-4.72-2.17-6.89-5.91-6.89-4.07,0-7,2.5-7,7.87v14.43h-8.46v-29.18h8.08v3.41c2.28-2.5,5.7-3.85,9.66-3.85,6.89,0,12.1,4.02,12.1,12.91Z"/><path class="cls-3" d="m627.31,181.18v40.25h-8.08v-3.36c-2.11,2.55-5.21,3.79-9.11,3.79-8.25,0-14.59-5.86-14.59-15.03s6.34-15.03,14.59-15.03c3.58,0,6.62,1.14,8.73,3.53v-14.16h8.46Zm-8.3,25.66c0-5.04-3.26-8.08-7.43-8.08s-7.49,3.04-7.49,8.08,3.26,8.08,7.49,8.08,7.43-3.03,7.43-8.08Z"/><path class="cls-3" d="m653.26,191.81v7.81c-.7-.05-1.25-.11-1.9-.11-4.66,0-7.76,2.55-7.76,8.14v13.78h-8.46v-29.18h8.08v3.85c2.06-2.82,5.53-4.29,10.04-4.29Z"/><path class="cls-3" d="m655.88,206.84c0-8.79,6.78-15.03,16.06-15.03s16,6.24,16,15.03-6.73,15.03-16,15.03-16.06-6.24-16.06-15.03Zm23.49,0c0-5.04-3.2-8.08-7.43-8.08s-7.49,3.04-7.49,8.08,3.26,8.08,7.49,8.08,7.43-3.03,7.43-8.08Z"/><path class="cls-3" d="m692.58,183.46c0-2.66,2.12-4.72,5.26-4.72s5.26,1.95,5.26,4.55c0,2.82-2.12,4.89-5.26,4.89s-5.26-2.06-5.26-4.72Zm1.03,8.79h8.46v29.18h-8.46v-29.18Z"/><path class="cls-3" d="m728.77,220.02c-1.74,1.25-4.28,1.84-6.89,1.84-6.89,0-10.9-3.52-10.9-10.47v-11.99h-4.51v-6.51h4.51v-7.11h8.46v7.11h7.27v6.51h-7.27v11.88c0,2.5,1.36,3.85,3.64,3.85,1.25,0,2.5-.38,3.42-1.08l2.28,5.97Z"/><path class="cls-3" d="m746.75,206.84c0-8.79,6.78-15.03,16.06-15.03s16,6.24,16,15.03-6.73,15.03-16,15.03-16.06-6.24-16.06-15.03Zm23.49,0c0-5.04-3.2-8.08-7.43-8.08s-7.49,3.04-7.49,8.08,3.26,8.08,7.49,8.08,7.43-3.03,7.43-8.08Z"/><path class="cls-3" d="m813.87,192.25v29.18h-8.03v-3.47c-2.22,2.55-5.48,3.9-9.06,3.9-7.32,0-12.48-4.12-12.48-13.13v-16.49h8.46v15.24c0,4.88,2.17,7.05,5.91,7.05s6.73-2.5,6.73-7.87v-14.43h8.46Zm-16.49-3.75l-9.82-7.81h9.12l7.32,7.81h-6.62Z"/><path class="cls-3" d="m866.52,192.25v29.18h-8.03v-3.47c-2.22,2.55-5.48,3.9-9.06,3.9-7.32,0-12.48-4.12-12.48-13.13v-16.49h8.46v15.24c0,4.88,2.17,7.05,5.91,7.05s6.73-2.5,6.73-7.87v-14.43h8.46Z"/><path class="cls-3" d="m893.23,220.02c-1.74,1.25-4.28,1.84-6.89,1.84-6.89,0-10.9-3.52-10.9-10.47v-11.99h-4.51v-6.51h4.51v-7.11h8.46v7.11h7.27v6.51h-7.27v11.88c0,2.5,1.36,3.85,3.64,3.85,1.25,0,2.5-.38,3.42-1.08l2.28,5.97Z"/><path class="cls-3" d="m896.99,183.46c0-2.66,2.12-4.72,5.26-4.72s5.26,1.95,5.26,4.55c0,2.82-2.12,4.89-5.26,4.89s-5.26-2.06-5.26-4.72Zm1.03,8.79h8.46v29.18h-8.46v-29.18Z"/><path class="cls-3" d="m914.36,181.18h8.46v40.25h-8.46v-40.25Z"/><path class="cls-3" d="m929.67,183.46c0-2.66,2.12-4.72,5.26-4.72s5.26,1.95,5.26,4.55c0,2.82-2.12,4.89-5.26,4.89s-5.26-2.06-5.26-4.72Zm1.03,8.79h8.46v29.18h-8.46v-29.18Z"/><path class="cls-3" d="m944.22,218.72l2.82-6.08c2.61,1.68,6.56,2.82,10.15,2.82,3.9,0,5.37-1.03,5.37-2.66,0-4.77-17.63.11-17.63-11.56,0-5.53,4.99-9.44,13.51-9.44,4.02,0,8.46.92,11.23,2.55l-2.82,6.02c-2.88-1.63-5.75-2.17-8.41-2.17-3.79,0-5.42,1.19-5.42,2.71,0,4.99,17.63.16,17.63,11.66,0,5.42-5.05,9.28-13.78,9.28-4.93,0-9.93-1.36-12.64-3.15Z"/><path class="cls-3" d="m1004.29,209.23h-22.08c.81,3.64,3.9,5.86,8.35,5.86,3.09,0,5.32-.92,7.32-2.82l4.51,4.89c-2.71,3.09-6.78,4.72-12.05,4.72-10.09,0-16.65-6.35-16.65-15.03s6.67-15.03,15.57-15.03,15.19,5.75,15.19,15.14c0,.65-.11,1.57-.16,2.28Zm-22.19-4.94h14.37c-.6-3.69-3.36-6.07-7.16-6.07s-6.62,2.33-7.21,6.07Z"/><path class="cls-3" d="m1028.23,191.81v7.81c-.7-.05-1.25-.11-1.9-.11-4.66,0-7.76,2.55-7.76,8.14v13.78h-8.46v-29.18h8.08v3.85c2.06-2.82,5.53-4.29,10.04-4.29Z"/><path class="cls-3" d="m1067.69,220.02c-1.74,1.25-4.28,1.84-6.89,1.84-6.89,0-10.9-3.52-10.9-10.47v-11.99h-4.51v-6.51h4.51v-7.11h8.46v7.11h7.27v6.51h-7.27v11.88c0,2.5,1.36,3.85,3.64,3.85,1.25,0,2.5-.38,3.42-1.08l2.28,5.97Z"/><path class="cls-3" d="m1099.98,209.23h-22.08c.81,3.64,3.9,5.86,8.35,5.86,3.1,0,5.32-.92,7.32-2.82l4.51,4.89c-2.71,3.09-6.78,4.72-12.05,4.72-10.09,0-16.65-6.35-16.65-15.03s6.67-15.03,15.57-15.03,15.19,5.75,15.19,15.14c0,.65-.11,1.57-.16,2.28Zm-22.19-4.94h14.37c-.6-3.69-3.36-6.07-7.16-6.07s-6.62,2.33-7.21,6.07Z"/><path class="cls-3" d="m1102.98,218.72l2.82-6.08c2.61,1.68,6.56,2.82,10.15,2.82,3.9,0,5.37-1.03,5.37-2.66,0-4.77-17.63.11-17.63-11.56,0-5.53,4.99-9.44,13.51-9.44,4.02,0,8.46.92,11.23,2.55l-2.82,6.02c-2.88-1.63-5.75-2.17-8.41-2.17-3.79,0-5.42,1.19-5.42,2.71,0,4.99,17.63.16,17.63,11.66,0,5.42-5.05,9.28-13.78,9.28-4.93,0-9.93-1.36-12.64-3.15Z"/><path class="cls-3" d="m1148.19,202.45c0-11.45,8.79-19.64,20.62-19.64,6.56,0,12.04,2.39,15.62,6.73l-5.64,5.21c-2.55-2.93-5.75-4.45-9.55-4.45-7.11,0-12.15,4.99-12.15,12.15s5.04,12.15,12.15,12.15c3.8,0,7-1.52,9.55-4.51l5.64,5.21c-3.58,4.4-9.06,6.78-15.68,6.78-11.77,0-20.56-8.19-20.56-19.63Z"/><path class="cls-3" d="m1186.57,206.84c0-8.79,6.78-15.03,16.06-15.03s16,6.24,16,15.03-6.73,15.03-16,15.03-16.06-6.24-16.06-15.03Zm23.49,0c0-5.04-3.2-8.08-7.43-8.08s-7.49,3.04-7.49,8.08,3.26,8.08,7.49,8.08,7.43-3.03,7.43-8.08Z"/><path class="cls-3" d="m1224.29,181.18h8.46v40.25h-8.46v-40.25Z"/><path class="cls-3" d="m1238.46,206.84c0-8.79,6.78-15.03,16.06-15.03s16,6.24,16,15.03-6.73,15.03-16,15.03-16.06-6.24-16.06-15.03Zm23.49,0c0-5.04-3.2-8.08-7.43-8.08s-7.49,3.04-7.49,8.08,3.26,8.08,7.49,8.08,7.43-3.03,7.43-8.08Z"/><path class="cls-3" d="m1294.31,191.81v7.81c-.7-.05-1.25-.11-1.9-.11-4.66,0-7.76,2.55-7.76,8.14v13.78h-8.46v-29.18h8.08v3.85c2.06-2.82,5.53-4.29,10.04-4.29Z"/><path class="cls-3" d="m1296.71,202.45c0-11.45,8.79-19.64,20.62-19.64,6.56,0,12.04,2.39,15.62,6.73l-5.64,5.21c-2.55-2.93-5.75-4.45-9.55-4.45-7.11,0-12.15,4.99-12.15,12.15s5.04,12.15,12.15,12.15c3.8,0,7-1.52,9.55-4.51l5.64,5.21c-3.58,4.4-9.06,6.78-15.68,6.78-11.77,0-20.56-8.19-20.56-19.63Z"/><path class="cls-3" d="m1335.08,206.84c0-8.79,6.78-15.03,16.06-15.03s16,6.24,16,15.03-6.73,15.03-16,15.03-16.06-6.24-16.06-15.03Zm23.49,0c0-5.04-3.2-8.08-7.43-8.08s-7.49,3.04-7.49,8.08,3.26,8.08,7.49,8.08,7.43-3.03,7.43-8.08Z"/><path class="cls-3" d="m1371.77,183.46c0-2.66,2.12-4.72,5.26-4.72s5.26,1.95,5.26,4.55c0,2.82-2.12,4.89-5.26,4.89s-5.26-2.06-5.26-4.72Zm1.03,8.79h8.46v29.18h-8.46v-29.18Z"/><path class="cls-3" d="m1418.98,204.72v16.71h-8.46v-15.41c0-4.72-2.17-6.89-5.91-6.89-4.07,0-7,2.5-7,7.87v14.43h-8.46v-29.18h8.08v3.41c2.28-2.5,5.7-3.85,9.66-3.85,6.89,0,12.1,4.02,12.1,12.91Z"/><path class="cls-3" d="m1423.83,218.72l2.82-6.08c2.61,1.68,6.56,2.82,10.15,2.82,3.9,0,5.37-1.03,5.37-2.66,0-4.77-17.63.11-17.63-11.56,0-5.53,4.99-9.44,13.51-9.44,4.02,0,8.46.92,11.23,2.55l-2.82,6.02c-2.88-1.63-5.75-2.17-8.41-2.17-3.79,0-5.42,1.19-5.42,2.71,0,4.99,17.63.16,17.63,11.66,0,5.42-5.05,9.28-13.78,9.28-4.93,0-9.93-1.36-12.64-3.15Z"/><path class="cls-3" d="m1469.58,216.93c0-2.77,2.17-4.83,5.21-4.83s5.21,2.06,5.21,4.83-2.17,4.93-5.21,4.93-5.21-2.22-5.21-4.93Zm.16-33.47h10.09l-1.68,24.79h-6.73l-1.68-24.79Z"/></g></svg>